<svg xmlns="http://www.w3.org/2000/svg" viewBox="0 0 24 24" fill="currentColor">
  <path d="M12 0.5C5.37 0.5 0 5.87 0 12.5c0 5.28 3.438 9.75 8.205 11.325.6.113.82-.262.82-.582 0-.287-.012-1.243-.017-2.25-3.338.726-4.042-1.61-4.042-1.61-.546-1.387-1.333-1.756-1.333-1.756-1.09-.745.083-.73.083-.73 1.205.085 1.84 1.237 1.84 1.237 1.07 1.835 2.807 1.305 3.492.998.108-.775.418-1.305.762-1.605-2.665-.305-5.466-1.332-5.466-5.93 0-1.31.468-2.38 1.236-3.22-.124-.303-.536-1.523.116-3.176 0 0 1.008-.322 3.3 1.23a11.48 11.48 0 0 1 3-.404c1.02.005 2.045.138 3 .404 2.292-1.552 3.298-1.23 3.298-1.23.653 1.653.241 2.873.118 3.176.77.84 1.235 1.91 1.235 3.22 0 4.61-2.804 5.624-5.475 5.92.43.37.815 1.102.815 2.222 0 1.604-.015 2.896-.015 3.29 0 .322.218.699.825.58C20.565 22.246 24 17.778 24 12.5 24 5.87 18.63 0.5 12 0.5z"></path>
</svg>
